<svg width="104" height="103" viewBox="0 0 104 103" fill="none" xmlns="http://www.w3.org/2000/svg">
<path d="M98.5 51.5C98.5 76.8551 77.7315 97.5 52 97.5C26.2685 97.5 5.5 76.8551 5.5 51.5C5.5 26.1449 26.2685 5.5 52 5.5C77.7315 5.5 98.5 26.1449 98.5 51.5Z" fill="#DC9B9B" stroke="white" stroke-width="11"/>
<path d="M32.6115 40.0061C33.5229 40.0061 34.4083 40.1624 35.2677 40.4749C36.1531 40.7874 36.9995 41.2431 37.8068 41.842C37.937 41.9722 38.0802 42.1025 38.2365 42.2327C38.3667 42.1025 38.5099 41.9722 38.6661 41.842C39.4734 41.2431 40.3068 40.7874 41.1661 40.4749C42.0516 40.1624 42.937 40.0061 43.8224 40.0061C44.7339 40.0061 45.6193 40.1624 46.4786 40.4749C47.3641 40.7874 48.1974 41.2561 48.9786 41.8811C49.7859 42.4801 50.4891 43.2874 51.088 44.303C51.713 45.3186 52.0255 46.5295 52.0255 47.9358V62.0374C51.8693 63.5999 51.0099 64.4462 49.4474 64.5764C48.7182 64.5764 48.0802 64.342 47.5333 63.8733C47.0125 63.3785 46.7521 62.7665 46.7521 62.0374V48.2483C46.7521 47.6233 46.6349 47.1025 46.4005 46.6858C46.1661 46.2431 45.9057 45.9045 45.6193 45.6702C45.3328 45.4097 45.0333 45.2275 44.7208 45.1233C44.4083 44.9931 44.0958 44.928 43.7833 44.928C43.4708 44.928 43.1583 44.9931 42.8458 45.1233C42.5594 45.2275 42.2729 45.4097 41.9865 45.6702C41.7 45.9045 41.4396 46.2431 41.2052 46.6858C40.9708 47.1025 40.8406 47.6233 40.8146 48.2483V62.0374C40.6583 63.5999 39.799 64.4462 38.2365 64.5764C37.5073 64.5764 36.8693 64.342 36.3224 63.8733C35.8016 63.3785 35.5411 62.7665 35.5411 62.0374V48.2483C35.5411 47.6233 35.424 47.1025 35.1896 46.6858C34.9552 46.2431 34.6948 45.9045 34.4083 45.6702C34.1219 45.4097 33.8224 45.2275 33.5099 45.1233C33.1974 44.9931 32.8849 44.928 32.5724 44.928C32.2599 44.928 31.9474 44.9931 31.6349 45.1233C31.3484 45.2275 31.062 45.4097 30.7755 45.6702C30.4891 45.9045 30.2286 46.2431 29.9943 46.6858C29.7599 47.1025 29.6297 47.6233 29.6036 48.2483V62.0374C29.4734 63.5999 28.6271 64.4462 27.0646 64.5764C26.3354 64.5764 25.6974 64.342 25.1505 63.8733C24.6297 63.3785 24.3693 62.7665 24.3693 62.0374V47.9358C24.4214 46.5295 24.7469 45.3186 25.3458 44.303C25.9448 43.2874 26.6479 42.4801 27.4552 41.8811C28.2625 41.2561 29.0958 40.7874 29.9552 40.4749C30.8406 40.1624 31.726 40.0061 32.6115 40.0061ZM61.6208 62.0374C61.4646 63.5999 60.6052 64.4462 59.0427 64.5764C58.3135 64.5764 57.6755 64.342 57.1286 63.8733C56.6078 63.3785 56.3474 62.7665 56.3474 62.0374V43.5999C56.3734 42.8707 56.6469 42.2717 57.1677 41.803C57.6885 41.3082 58.3135 41.0608 59.0427 41.0608H75.449C77.7406 41.1389 79.4724 41.6467 80.6443 42.5842C81.8161 43.4957 82.6625 44.5374 83.1833 45.7092C83.7042 46.8811 83.9646 48.066 83.9646 49.2639C83.9646 50.5139 83.7042 51.7249 83.1833 52.8967C82.6885 54.0686 81.8422 55.1233 80.6443 56.0608C79.4724 56.9722 77.975 57.415 76.1521 57.3889H66.3083C65.5792 57.3889 64.9672 57.1285 64.4724 56.6077C63.9516 56.1129 63.6911 55.5009 63.6911 54.7717C63.6911 54.0426 63.9385 53.4306 64.4333 52.9358C64.9542 52.415 65.5792 52.1545 66.3083 52.1545H76.3865C76.8813 52.1545 77.2849 51.9983 77.5974 51.6858C77.9359 51.3472 78.1833 50.9696 78.3396 50.553C78.4958 50.1103 78.574 49.6676 78.574 49.2249C78.574 48.8082 78.4958 48.3915 78.3396 47.9749C78.1833 47.5321 77.9359 47.1545 77.5974 46.842C77.2849 46.5035 76.8813 46.3212 76.3865 46.2952H62.6365C61.9594 46.3212 61.6208 46.6597 61.6208 47.3108V62.0374Z" fill="white"/>
</svg>
